<?xml version="1.0" encoding="UTF-8"?>
<svg version="1.1" xmlns="http://www.w3.org/2000/svg" width="474" height="474">
<path d="M0 0 C156.42 0 312.84 0 474 0 C474 156.42 474 312.84 474 474 C317.58 474 161.16 474 0 474 C0 317.58 0 161.16 0 0 Z " fill="#FCFCFC" transform="translate(0,0)"/>
<path d="M0 0 C0.67756348 0.09651855 1.35512695 0.19303711 2.05322266 0.29248047 C34.2615127 5.01326233 66.40678889 19.52265934 93 38 C93.68616386 38.42532747 94.37232772 38.85065493 95.07928443 39.28887111 C97 41 97 41 97.49679399 43.11025542 C97.4952751 43.93234994 97.49375622 44.75444445 97.49219131 45.60145092 C97.50015551 46.55142427 97.5081197 47.50139761 97.51632524 48.48015803 C97.50467387 49.52586649 97.4930225 50.57157496 97.48101807 51.64897156 C97.48443577 52.75817752 97.48785347 53.86738349 97.49137473 55.01020175 C97.49799049 58.74623622 97.47591565 62.48156045 97.45410156 66.2175293 C97.45297388 68.88790513 97.45342902 71.55823676 97.45587158 74.22860718 C97.45797093 79.98757539 97.44540079 85.74636259 97.42292023 91.50528526 C97.39043819 99.83173102 97.37999712 108.15808909 97.37496826 116.48459134 C97.36620963 129.99311379 97.33957868 143.50153973 97.30175781 157.01000977 C97.2650524 170.13370276 97.23673346 183.25736956 97.21972656 196.38110352 C97.21867567 197.18979115 97.21762477 197.99847878 97.21654204 198.83167209 C97.21132196 202.88854334 97.20626711 206.94541476 97.20129442 211.00228631 C97.1598147 244.66826087 97.08935086 278.33411862 97 312 C91.5088174 312.3304229 86.02353564 312.56918236 80.52470398 312.72784424 C78.6600511 312.7940236 76.79607401 312.88411775 74.93382263 312.99957275 C59.9234533 313.90607561 59.9234533 313.90607561 55.04769003 310.72710454 C51.19544015 307.24041259 48.46466754 303.18820338 45.8125 298.75 C45.3157118 297.9264609 44.81892361 297.10292179 44.30708122 296.25442696 C43.28493859 294.43935354 42.44462475 292.62564868 41.63671875 290.70703125 C41.02252987 289.37084683 40.40318965 288.03701865 39.77880859 286.70556641 C39.48391541 286.07378479 39.18902222 285.44200317 38.88519287 284.79107666 C36.72289386 280.41593604 33.88041165 276.45209411 31.125 272.4375 C30.0916699 270.85591517 29.0629462 269.27131029 28.0390625 267.68359375 C24.32325758 261.95616205 20.60181829 256.23239696 16.88012695 250.50878906 C14.13226064 246.28232279 11.3864739 242.05453086 8.64453125 237.82421875 C3.20186739 229.43165964 -2.25481051 221.05162235 -7.8425293 212.75463867 C-9.99684287 209.5475174 -12.00908342 206.3181943 -14 203 C-14.33 238.97 -14.66 274.94 -15 312 C-27.54 312 -40.08 312 -53 312 C-53.66424006 302.03639914 -54.27492668 292.11613303 -54.55859375 282.140625 C-54.57965117 281.41068581 -54.60070858 280.68074661 -54.6224041 279.92868805 C-55.33526851 254.05928679 -55.11285917 228.16598789 -55.07202756 202.28888083 C-55.06062335 194.93155314 -55.05529506 187.57422425 -55.05032361 180.21688986 C-55.04001068 165.14458339 -55.02254764 150.07229354 -55 135 C-49.29734989 134.80606965 -43.59664012 134.66473654 -37.89146423 134.57084656 C-35.95335945 134.53169017 -34.01548351 134.47847275 -32.07817078 134.41062927 C-16.06681127 133.86418843 -16.06681127 133.86418843 -11.10655212 136.59008789 C-7.86027827 139.86948168 -5.75099022 143.62663848 -4.38671875 148.0390625 C-1.9421033 154.6922865 1.88431013 160.17038428 5.90731812 165.9331665 C7.90398922 168.80980206 9.84193458 171.72514656 11.78125 174.640625 C12.50957031 175.73310547 13.23789062 176.82558594 13.98828125 177.95117188 C17.31774837 182.99709244 20.5141293 188.1179704 23.6640625 193.27734375 C26.25459629 197.46880253 29.01583548 201.54545775 31.75683594 205.6394043 C35.39272273 211.07604995 38.97218498 216.54996547 42.55639648 222.02075195 C43.82756473 223.96048798 45.10028648 225.89919903 46.37304688 227.83789062 C47.19280247 229.08847996 48.01246733 230.33912879 48.83203125 231.58984375 C49.20705276 232.16073227 49.58207428 232.73162079 49.96846008 233.31980896 C52.0559465 236.50978817 54.03674686 239.72791143 56 243 C56.33 184.26 56.66 125.52 57 65 C55.02 64.34 53.04 63.68 51 63 C48.49830597 61.7807331 46.02901143 60.53560876 43.5625 59.25 C28.43857334 51.56123146 13.03996204 46.35744727 -3.6875 43.3125 C-4.33960449 43.19302002 -4.99170898 43.07354004 -5.66357422 42.95043945 C-51.95190877 35.04098758 -99.48789585 46.59008423 -138 73 C-139.09441406 73.73605469 -140.18882812 74.47210938 -141.31640625 75.23046875 C-149.32939712 80.71485173 -156.51795134 86.77753081 -163.48144531 93.53710938 C-164.91267918 94.91588001 -166.37348774 96.26376007 -167.8359375 97.609375 C-195.5610651 123.8251117 -210.86834794 163.28886264 -212.0625 200.97229004 C-212.85412019 227.17937501 -212.85412019 227.17937501 -209 253 C-208.67111585 254.43341978 -208.343012 255.86701878 -208.015625 257.30078125 C-206.7452974 262.69542295 -205.37207579 267.99082566 -203.45487976 273.19407654 C-201.9231306 277.78191675 -201.58971495 281.83398295 -201.65942383 286.64086914 C-201.65876671 287.85716003 -201.65876671 287.85716003 -201.65809631 289.09802246 C-201.66016493 291.74398981 -201.68340341 294.38930137 -201.70703125 297.03515625 C-201.71263408 298.88317011 -201.71690093 300.73118845 -201.71989441 302.57920837 C-201.73128908 307.41747577 -201.76070938 312.25546831 -201.79400635 317.09362793 C-201.8248238 322.04089644 -201.83842459 326.98820982 -201.85351562 331.93554688 C-201.88558471 341.62381795 -201.93671526 351.31188602 -202 361 C-238.22095965 325.17071911 -255.96532554 268.22999876 -256.3125 218.375 C-256.15022947 167.28242492 -239.22075018 120.4153107 -207 81 C-206.5148291 80.39768555 -206.0296582 79.79537109 -205.52978516 79.17480469 C-192.41514994 62.94908399 -177.60886411 47.32983776 -160 36 C-159.29665527 35.54334961 -158.59331055 35.08669922 -157.86865234 34.61621094 C-133.46920969 18.91217237 -106.85389071 6.92591429 -78.265625 1.43798828 C-76.78908213 1.15254454 -75.31487892 0.85462897 -73.84375 0.54248047 C-50.31170787 -4.39733001 -23.69475206 -3.59386341 0 0 Z " fill="#010101" transform="translate(272,19)"/>
<path d="M0 0 C0.66 0 1.32 0 2 0 C3.59375 1.9140625 3.59375 1.9140625 5.5 4.625 C6.56154297 6.12546875 6.56154297 6.12546875 7.64453125 7.65625 C8.02432129 8.19765625 8.40411133 8.7390625 8.79541016 9.296875 C10.0383915 11.05428032 11.3032073 12.79402641 12.57421875 14.53125 C13.44538992 15.72911036 14.31648483 16.9270262 15.1875 18.125 C15.59097656 18.67365723 15.99445313 19.22231445 16.41015625 19.78759766 C19.67717693 24.31845354 22.35759712 29.08406935 25 34 C25.61113647 35.11640869 25.61113647 35.11640869 26.23461914 36.25537109 C31.88910924 46.60828351 36.97750522 56.9017915 41 68 C41.42796875 69.13953125 41.8559375 70.2790625 42.296875 71.453125 C44.99233323 79.0070635 46.95338272 86.61371836 48.6875 94.4375 C48.88996338 95.34177734 49.09242676 96.24605469 49.30102539 97.17773438 C52.4150122 111.82995742 53.32728264 126.08387733 53.26074219 141.01708984 C53.25003956 143.86447565 53.26069322 146.71122714 53.2734375 149.55859375 C53.28798091 165.85268255 51.97476005 181.49421764 48.1875 197.375 C47.95224609 198.43332031 47.71699219 199.49164063 47.47460938 200.58203125 C45.71960823 208.10872907 43.10134701 214.93691364 40 222 C39.19283256 224.01124645 38.38684234 226.02296574 37.58203125 228.03515625 C35.05170789 234.10181137 31.97589929 239.75317696 28.6875 245.4375 C28.11427002 246.43813477 27.54104004 247.43876953 26.95043945 248.46972656 C18.04781048 263.94797562 8.47011013 278.28251155 -3 292 C-3.60457031 292.74121094 -4.20914062 293.48242188 -4.83203125 294.24609375 C-6.17506259 295.87014868 -7.58066276 297.44219084 -9 299 C-9.66 299 -10.32 299 -11 299 C-11.3403125 299.85851562 -11.3403125 299.85851562 -11.6875 300.734375 C-13.36435362 303.62894375 -15.3768477 305.17830585 -18 307.25 C-18.99515625 308.04019531 -19.9903125 308.83039063 -21.015625 309.64453125 C-22.00046875 310.42183594 -22.9853125 311.19914062 -24 312 C-24.79921875 312.66386719 -25.5984375 313.32773437 -26.421875 314.01171875 C-54.21298174 337 -54.21298174 337 -64 337 C-64 337.66 -64 338.32 -64 339 C-65.0003125 339.42539062 -66.000625 339.85078125 -67.03125 340.2890625 C-69.58537715 341.38277257 -72.12570577 342.50127555 -74.65625 343.6484375 C-92.20333653 351.56486083 -110.97487606 357.78536696 -130 361 C-130.91716797 361.1662085 -131.83433594 361.33241699 -132.77929688 361.50366211 C-143.60071055 363.28044811 -154.30638214 363.39592648 -165.25 363.375 C-166.70533142 363.37518127 -166.70533142 363.37518127 -168.19006348 363.37536621 C-183.80739994 363.34770213 -198.69763048 362.33286268 -214 359 C-215.09175537 358.7836792 -215.09175537 358.7836792 -216.20556641 358.56298828 C-236.45083992 354.55089348 -255.85718197 346.36166676 -273.75390625 336.25195312 C-275.16273587 335.46668374 -276.58583414 334.70595415 -278.02734375 333.98242188 C-279.43083602 333.26210401 -280.81021912 332.49319783 -282.16395569 331.68323135 C-283.71030742 330.7654503 -285.26769243 329.86262233 -286.86752129 329.04160261 C-292.93131732 325.86890297 -299.44213149 322.2209591 -301.91861343 315.51106739 C-303.38612611 308.07004571 -303.00409068 300.49725241 -302.81640625 292.95410156 C-302.81188859 290.41049486 -302.81443518 287.86686732 -302.82348633 285.32327271 C-302.82711881 279.8641643 -302.7820506 274.40898983 -302.69168091 268.95069122 C-302.56112608 261.06004707 -302.51992756 253.17087857 -302.49987304 245.27927157 C-302.46493392 232.47374972 -302.35867746 219.66986713 -302.20703125 206.86523438 C-302.05995734 194.43367666 -301.94680794 182.00256563 -301.87890625 169.5703125 C-301.87260089 168.41907423 -301.87260089 168.41907423 -301.86616814 167.24457863 C-301.84528614 163.39393865 -301.82506715 159.54329554 -301.80517769 155.69265032 C-301.63955696 123.7938982 -301.3567734 91.89720481 -301 60 C-295.41345844 59.80170637 -289.82897838 59.65682995 -284.23974609 59.56054688 C-282.3402945 59.52040166 -280.44108882 59.46586982 -278.54248047 59.39648438 C-275.80634942 59.29902135 -273.07349196 59.25398954 -270.3359375 59.21875 C-269.49195404 59.17745972 -268.64797058 59.13616943 -267.77841187 59.09362793 C-264.11653106 59.09086338 -261.90630046 59.14748896 -259.16741943 61.72381592 C-257.63231741 63.755608 -256.30100749 65.81282857 -255 68 C-254.2471875 69.03640625 -253.494375 70.0728125 -252.71875 71.140625 C-247.65464875 78.23749929 -242.6283674 85.3601582 -237.625 92.5 C-237.03009766 93.34852539 -236.43519531 94.19705078 -235.82226562 95.07128906 C-234.20937692 97.37711576 -232.6033131 99.68750886 -231 102 C-230.35562988 102.91845703 -230.35562988 102.91845703 -229.69824219 103.85546875 C-227 107.76898595 -227 107.76898595 -227 110 C-225.515 110.495 -225.515 110.495 -224 111 C-224 111.99 -224 112.98 -224 114 C-223.34 114 -222.68 114 -222 114 C-219 118.38461538 -219 118.38461538 -219 121 C-218.34 121 -217.68 121 -217 121 C-214 125.38461538 -214 125.38461538 -214 128 C-213.34 128 -212.68 128 -212 128 C-210.47691683 130.09462554 -209.07316094 132.19117872 -207.6875 134.375 C-203.07475147 141.49770317 -198.17225123 148.36887621 -193.1159668 155.18310547 C-192.58011963 155.91287598 -192.04427246 156.64264648 -191.4921875 157.39453125 C-191.01120605 158.04268799 -190.53022461 158.69084473 -190.03466797 159.35864258 C-189 161 -189 161 -189 163 C-188.34 163 -187.68 163 -187 163 C-186.73655752 170.46803309 -186.47560974 177.93614999 -186.21769714 185.40437603 C-186.09781517 188.87354934 -185.97712904 192.34269048 -185.85449219 195.81176758 C-185.71298029 199.81583316 -185.5751693 203.82001919 -185.4375 207.82421875 C-185.39375244 209.04767502 -185.35000488 210.27113129 -185.30493164 211.53166199 C-185.03942007 219.35774237 -184.94864878 227.16960158 -185 235 C-188.98739008 231.37509993 -191.93215991 227.39871018 -194.96875 222.95703125 C-197.73624425 218.92819828 -200.59323482 214.9655438 -203.44799805 210.99829102 C-206.04216773 207.38036655 -208.53391147 203.70712229 -211 200 C-211.86625 198.88625 -211.86625 198.88625 -212.75 197.75 C-214 196 -214 196 -214 194 C-214.66 194 -215.32 194 -216 194 C-217.55078125 191.83984375 -217.55078125 191.83984375 -219.3125 188.9375 C-221.42157775 185.51355787 -223.54207802 182.16789764 -225.9375 178.9375 C-228 176 -228 176 -228 174 C-228.66 174 -229.32 174 -230 174 C-234 168.58823529 -234 168.58823529 -234 166 C-234.66 166 -235.32 166 -236 166 C-237.65625 163.76953125 -237.65625 163.76953125 -239.5 160.8125 C-240.1084375 159.84957031 -240.716875 158.88664063 -241.34375 157.89453125 C-242.82620404 155.30373304 -243.97690007 152.79817831 -245 150 C-245.66 150 -246.32 150 -247 150 C-247.93607121 148.68256644 -248.85879839 147.35415463 -249.72265625 145.98828125 C-251.29058454 143.54768339 -252.95476443 141.18416506 -254.625 138.8125 C-256.44577586 136.22445397 -258.24457966 133.63313052 -260 131 C-260.33 185.12 -260.66 239.24 -261 295 C-259.35 295.66 -257.7 296.32 -256 297 C-253.5115171 298.23450995 -251.03537155 299.48521929 -248.5625 300.75 C-216.08646051 317.04327616 -179.3145986 326.44074894 -143 319 C-141.8140625 318.80535156 -140.628125 318.61070312 -139.40625 318.41015625 C-122.23245256 315.50778448 -105.63717492 310.7163963 -90 303 C-89.29891113 302.65565918 -88.59782227 302.31131836 -87.87548828 301.95654297 C-74.11599456 295.11832375 -61.95530232 287.05901075 -50.49145508 276.80932617 C-46.19999847 273 -46.19999847 273 -44 273 C-43.74605469 272.41734375 -43.49210937 271.8346875 -43.23046875 271.234375 C-41.86679667 268.75811967 -40.35774797 267.19479374 -38.3125 265.25 C-31.76819693 259.00733816 -26.17065741 252.22399681 -21.1875 244.6875 C-20.42155518 243.53169434 -20.42155518 243.53169434 -19.64013672 242.35253906 C-14.13407944 233.88930364 -9.42852297 225.06586051 -5 216 C-4.42507813 214.83339844 -3.85015625 213.66679687 -3.2578125 212.46484375 C7.0108826 190.14506348 10.23672632 165.89434903 10.3125 141.5625 C10.31813965 140.24781738 10.3237793 138.93313477 10.32958984 137.57861328 C10.23691781 125.07417156 8.81745344 112.90910078 5.625 100.8125 C5.30063965 99.55022583 5.30063965 99.55022583 4.96972656 98.26245117 C2.85796796 87.36272909 2.85796796 87.36272909 -2 78 C-2.06884705 76.65380068 -2.06768709 75.30392161 -2.03759766 73.95629883 C-2.02069382 73.09124222 -2.00378998 72.22618561 -1.9863739 71.33491516 C-1.96251114 70.38521347 -1.93864838 69.43551178 -1.9140625 68.45703125 C-1.89314041 67.47288742 -1.87221832 66.48874359 -1.85066223 65.47477722 C-1.78062246 62.25387904 -1.70300781 59.03321427 -1.625 55.8125 C-1.57534541 53.61784434 -1.52594796 51.42318284 -1.47680664 49.22851562 C-1.10129395 32.81494042 -0.62527956 16.40604891 0 0 Z " fill="#36B4FC" transform="translate(404,94)"/>
<path d="M0 0 C69.3 0 138.6 0 210 0 C210 69.63 210 139.26 210 211 C209.34 211 208.68 211 208 211 C207.89977539 210.29093506 207.79955078 209.58187012 207.69628906 208.85131836 C204.89988143 189.20130107 204.89988143 189.20130107 200 170 C199.80744629 169.34789551 199.61489258 168.69579102 199.41650391 168.02392578 C189.57024943 134.72156628 171.64937855 104.07280033 148.28125 78.50390625 C146.76460508 76.83923263 145.26436472 75.15945899 143.78125 73.46484375 C119.20560345 45.47110551 85.1709244 26.38430776 50.5625 13.6875 C49.67546387 13.36193115 48.78842773 13.0363623 47.87451172 12.70092773 C36.68731543 8.69150495 25.53159922 6.24910601 13.8125 4.3125 C12.46540926 4.08579409 11.11840335 3.85858353 9.77148438 3.63085938 C6.51511804 3.08229587 3.25799527 2.53878909 0 2 C0 1.34 0 0.68 0 0 Z " fill="#010101" transform="translate(264,0)"/>
<path d="M0 0 C69.96 0 139.92 0 212 0 C212 0.66 212 1.32 212 2 C210.72769531 2.15855469 209.45539063 2.31710938 208.14453125 2.48046875 C165.64474183 8.01025698 124.2666015 23.43624447 91 51 C90.46858398 51.43666992 89.93716797 51.87333984 89.38964844 52.32324219 C78.61815977 61.19200197 67.93817569 70.24745104 59 81 C57.75476562 82.41345703 57.75476562 82.41345703 56.484375 83.85546875 C49.54128075 91.77108861 43.5748567 100.07405216 38 109 C37.5889502 109.65452148 37.17790039 110.30904297 36.75439453 110.98339844 C17.07684597 142.59348621 6.85280087 175.29734916 2 212 C1.34 212 0.68 212 0 212 C0 142.04 0 72.08 0 0 Z " fill="#010101" transform="translate(0,0)"/>
<path d="M0 0 C0.66 0 1.32 0 2 0 C2 69.3 2 138.6 2 210 C-66.64 210 -135.28 210 -206 210 C-206 209.34 -206 208.68 -206 208 C-204.94425781 207.84144531 -203.88851563 207.68289063 -202.80078125 207.51953125 C-156.4226497 200.31624356 -112.08914584 181.5108667 -77.47265625 149.28515625 C-75.40139901 147.37096117 -73.29085299 145.55412389 -71.125 143.75 C-51.10028581 126.26940933 -36.24131892 103.34355091 -24 80 C-23.64695801 79.33339355 -23.29391602 78.66678711 -22.93017578 77.97998047 C-10.20639031 53.62267166 -4.20221209 26.93235931 0 0 Z " fill="#010101" transform="translate(472,264)"/>
<path d="M0 0 C0.66 0 1.32 0 2 0 C2.12004395 0.73299316 2.24008789 1.46598633 2.36376953 2.22119141 C10.05917571 48.63252632 26.06800727 91.05064865 57.49560547 126.76196289 C61 130.79046598 61 130.79046598 61 133 C61.66 133 62.32 133 63 133 C64.48046875 134.50390625 64.48046875 134.50390625 66.1875 136.5625 C72.7913591 144.2918628 80.03560519 150.68233961 88 157 C89.50240234 158.21042969 89.50240234 158.21042969 91.03515625 159.4453125 C98.65401098 165.50985884 106.62925281 170.80579308 114.98681641 175.79736328 C116.28983461 176.57576101 117.58926205 177.36021487 118.88427734 178.15185547 C145.63494736 194.4597884 176.1446446 203.59528946 207 208 C207 208.66 207 209.32 207 210 C138.69 210 70.38 210 0 210 C0 140.7 0 71.4 0 0 Z " fill="#010101" transform="translate(0,264)"/>
<path d="M0 0 C0.99 0.33 1.98 0.66 3 1 C3 86.14 3 171.28 3 259 C2.34 259 1.68 259 1 259 C0.67 173.53 0.34 88.06 0 0 Z " fill="#D1F6FE" transform="translate(100,153)"/>
<path d="M0 0 C0.66 0 1.32 0 2 0 C2 54.45 2 108.9 2 165 C3.65 165.66 5.3 166.32 7 167 C9.4884829 168.23450995 11.96462845 169.48521929 14.4375 170.75 C32.50860996 179.81630211 51.05619426 186.36686863 71 190 C71 190.33 71 190.66 71 191 C63.66310251 190.74873639 56.67592283 189.89340223 49.5625 188.125 C48.90121094 187.96354492 48.23992187 187.80208984 47.55859375 187.63574219 C44.45941594 186.82801113 41.73501633 185.86635031 38.87109375 184.421875 C35.94439004 182.97245983 33.71992293 182.50435874 30.5 182.125 C26.21497133 181.42329061 23.8900644 180.55092352 20.72265625 177.4296875 C16.73592374 174.12097072 11.65083942 172.21641566 7 170 C4.99814987 169.00370885 2.99761623 168.0047534 1 167 C1 166.34 1 165.68 1 165 C0.34 165 -0.32 165 -1 165 C-1.33 163.35 -1.66 161.7 -2 160 C-1.34 160 -0.68 160 0 160 C0 107.2 0 54.4 0 0 Z " fill="#52ADDD" transform="translate(141,224)"/>
<path d="M0 0 C5.58654156 -0.19829363 11.17102162 -0.34317005 16.76025391 -0.43945312 C18.6597055 -0.47959834 20.55891118 -0.53413018 22.45751953 -0.60351562 C25.19365058 -0.70097865 27.92650804 -0.74601046 30.6640625 -0.78125 C31.50804596 -0.82254028 32.35202942 -0.86383057 33.22158813 -0.90637207 C36.89896176 -0.90914832 39.09784345 -0.83650382 41.86444092 1.72875977 C44.54224697 5.22550991 46.67775096 8.76880306 48 13 C42.14602788 10.39823461 42.30906806 8.61813612 39 2 C26.46 1.67 13.92 1.34 1 1 C1 85.15 1 169.3 1 256 C2.32 256.33 3.64 256.66 5 257 C7.25 259.0625 7.25 259.0625 9 261 C8.67 261.99 8.34 262.98 8 264 C0.65107448 259.96283753 0.65107448 259.96283753 -0.74734592 255.74692655 C-1.00948147 252.96618182 -1.02800937 250.27639413 -0.96203613 247.48379517 C-0.96887153 246.42511211 -0.97570693 245.36642905 -0.98274946 244.27566469 C-0.99592856 240.72775945 -0.95193015 237.18288022 -0.90820312 233.63525391 C-0.90594658 231.09253002 -0.9072131 228.54980093 -0.91174316 226.00708008 C-0.91356495 220.53268557 -0.89087727 215.05926567 -0.84584045 209.58507156 C-0.78076948 201.67057898 -0.75998359 193.75645505 -0.74993652 185.84172396 C-0.73243579 173.00023037 -0.67921948 160.15914376 -0.60351562 147.31787109 C-0.53006156 134.84523553 -0.4734451 122.37271059 -0.43945312 109.89990234 C-0.43735134 109.13083383 -0.43524955 108.36176531 -0.43308407 107.56939168 C-0.42264362 103.7111258 -0.41253399 99.85285914 -0.40258884 95.99459195 C-0.31968097 63.99609887 -0.17879906 31.99810597 0 0 Z " fill="#50A6D0" transform="translate(103,154)"/>
<path d="M0 0 C0.66 0 1.32 0 2 0 C3.5078125 1.75 3.5078125 1.75 5.125 4 C5.66382813 4.7425 6.20265625 5.485 6.7578125 6.25 C7.16773438 6.8275 7.57765625 7.405 8 8 C7.67 8.66 7.34 9.32 7 10 C4.525 9.01 4.525 9.01 2 8 C1.39403917 32.33512908 0.79187256 56.6554939 1 81 C1.99 81.33 2.98 81.66 4 82 C4.20689453 83.09634766 4.20689453 83.09634766 4.41796875 84.21484375 C4.94091769 86.71727727 5.58990016 89.11211954 6.3125 91.5625 C10.78335975 108.13106507 12.57552615 123.59662586 12.3125 140.75 C12.30096322 142.71092788 12.29119168 144.67186696 12.28320312 146.6328125 C12.26980113 148.52084515 12.25488433 150.40886779 12.23828125 152.296875 C12.23089432 153.15528992 12.22350739 154.01370483 12.21589661 154.89813232 C12.13552279 160.0063631 11.72308292 164.94169475 11 170 C10.34 170 9.68 170 9 170 C9.07001221 169.31719971 9.14002441 168.63439941 9.2121582 167.9309082 C9.95327513 160.03286905 10.18624423 152.17512751 10.18530273 144.24682617 C10.18748651 142.20014531 10.20572083 140.15400803 10.22460938 138.10742188 C10.28020166 125.41305595 8.87296544 113.11944258 5.625 100.8125 C5.40875977 99.97098389 5.19251953 99.12946777 4.96972656 98.26245117 C2.85796796 87.36272909 2.85796796 87.36272909 -2 78 C-2.06884705 76.65380068 -2.06768709 75.30392161 -2.03759766 73.95629883 C-2.0122419 72.65871391 -2.0122419 72.65871391 -1.9863739 71.33491516 C-1.96251114 70.38521347 -1.93864838 69.43551178 -1.9140625 68.45703125 C-1.89314041 67.47288742 -1.87221832 66.48874359 -1.85066223 65.47477722 C-1.78062246 62.25387904 -1.70300781 59.03321427 -1.625 55.8125 C-1.57534541 53.61784434 -1.52594796 51.42318284 -1.47680664 49.22851562 C-1.10129395 32.81494042 -0.62527956 16.40604891 0 0 Z " fill="#56B1DC" transform="translate(404,94)"/>
<path d="M0 0 C1.32 1.32 2.64 2.64 4 4 C3.34 4.66 2.68 5.32 2 6 C1.7001205 8.84463754 1.7001205 8.84463754 1.75949097 12.23880005 C1.75778212 12.88571017 1.75607327 13.53262029 1.75431263 14.19913375 C1.75100663 16.37651928 1.76203937 18.55359968 1.77294922 20.73095703 C1.77351309 22.28788241 1.77319724 23.84480833 1.77206421 25.4017334 C1.77148877 29.63706335 1.7832739 33.87228075 1.79721212 38.10758448 C1.80968772 42.53052867 1.81088747 46.95347525 1.81326294 51.37643433 C1.81948706 59.75581056 1.83591044 68.1351348 1.85596192 76.5144881 C1.87829198 86.0524352 1.88930706 95.59038473 1.89935279 105.12835145 C1.92027589 124.75226335 1.95546992 144.37612841 2 164 C3.32 164 4.64 164 6 164 C7 165 8 166 9 167 C10.66194453 167.35613097 12.328451 167.69208308 14 168 C14.33 168.66 14.66 169.32 15 170 C15.99 170.33 16.98 170.66 18 171 C18 171.66 18 172.32 18 173 C18.886875 172.95875 19.77375 172.9175 20.6875 172.875 C23.97277013 172.99897246 26.05449295 173.61387904 29 175 C29 176.32 29 177.64 29 179 C24.0667001 177.5069264 19.63716547 175.45344846 15.0625 173.125 C14.04639648 172.61646484 14.04639648 172.61646484 13.00976562 172.09765625 C8.57529048 169.86128623 4.32805596 167.47317483 0 165 C0 110.55 0 56.1 0 0 Z " fill="#C3F7FE" transform="translate(143,224)"/>
<path d="M0 0 C-0.51304687 0.25265625 -1.02609375 0.5053125 -1.5546875 0.765625 C-3.46792732 1.73141379 -5.36601546 2.72723125 -7.2578125 3.734375 C-25.37753633 13.25872369 -45.81568649 19.57864013 -66 23 C-66.90339111 23.16838379 -67.80678223 23.33676758 -68.73754883 23.51025391 C-78.99309949 25.22810425 -89.09623896 25.27211875 -99.47045898 25.20581055 C-102.45630328 25.18738396 -105.4418387 25.18530271 -108.42773438 25.18554688 C-110.34635683 25.18063592 -112.26497721 25.17480946 -114.18359375 25.16796875 C-115.06599228 25.16685593 -115.94839081 25.1657431 -116.85752869 25.16459656 C-121.67323759 25.1278106 -126.25045151 24.80545079 -131 24 C-131 23.67 -131 23.34 -131 23 C-113.84 23 -96.68 23 -79 23 C-79.495 21.515 -79.495 21.515 -80 20 C-79.39994141 20.01595215 -78.79988281 20.0319043 -78.18164062 20.04833984 C-71.82630638 20.14295716 -65.77425082 19.60182947 -59.5 18.625 C-58.60796875 18.49867188 -57.7159375 18.37234375 -56.796875 18.2421875 C-55.94609375 18.11328125 -55.0953125 17.984375 -54.21875 17.8515625 C-53.45498047 17.73635254 -52.69121094 17.62114258 -51.90429688 17.50244141 C-49.77629772 17.11184106 -49.77629772 17.11184106 -48 15 C-46.0390625 14.5078125 -46.0390625 14.5078125 -43.625 14.125 C-37.52981441 13.00243345 -31.83006933 11.07358136 -26 9 C-24.9996875 8.64421875 -23.999375 8.2884375 -22.96875 7.921875 C-20.30642481 6.96286539 -17.64874247 5.99589369 -15 5 C-14.09894531 4.66484375 -13.19789063 4.3296875 -12.26953125 3.984375 C-9.94084207 3.17357345 -9.94084207 3.17357345 -8.625 1.375 C-5.99891917 -0.84706839 -3.29349183 -0.18642407 0 0 Z " fill="#57B0DF" transform="translate(340,432)"/>
<path d="M0 0 C3.27864216 1.63932108 4.26162725 5.13044339 5.8125 8.3125 C6.17142334 9.04307617 6.53034668 9.77365234 6.90014648 10.52636719 C9.85292142 16.59282035 12.59379556 22.69383117 15 29 C15.2666748 29.68980957 15.53334961 30.37961914 15.80810547 31.09033203 C22.83445284 49.45758809 27.68482694 68.25870576 28 88 C25.12679465 82.66404721 23.81497156 77.79986352 23.625 71.75 C23.19519021 64.15939691 21.60304175 57.02047486 19.83984375 49.640625 C19 46 19 46 19 44 C18.34 44 17.68 44 17 44 C14.39788411 39.50543618 13.38213106 35.37745888 12.46484375 30.34375 C11.94282947 27.71174524 11.23257917 25.38812215 10 23 C9.34 22.67 8.68 22.34 8 22 C7.2890625 19.85546875 7.2890625 19.85546875 6.625 17.1875 C5.51728423 13.10703556 5.51728423 13.10703556 2.875 9.875 C-0.04431585 6.95568415 0.26953135 4.04297023 0 0 Z " fill="#60B2E1" transform="translate(428,128)"/>
<path d="M0 0 C0.66 0 1.32 0 2 0 C1.67 1.98 1.34 3.96 1 6 C0.01 6.33 -0.98 6.66 -2 7 C-2.433125 7.86625 -2.433125 7.86625 -2.875 8.75 C-4 11 -4 11 -6.5625 13.5 C-8.86376327 15.86027002 -9.64621864 16.81596775 -10 20 C-10.66 20 -11.32 20 -12 20 C-12.226875 20.598125 -12.45375 21.19625 -12.6875 21.8125 C-14.33935661 24.56559434 -16.23852733 25.44224619 -19 27 C-19.33 27.66 -19.66 28.32 -20 29 C-20.66 29 -21.32 29 -22 29 C-22 29.66 -22 30.32 -22 31 C-22.66 31 -23.32 31 -24 31 C-24.33 31.99 -24.66 32.98 -25 34 C-26.66666667 34.66666667 -28.33333333 35.33333333 -30 36 C-30.33 36.99 -30.66 37.98 -31 39 C-31.66 39 -32.32 39 -33 39 C-33.33 39.99 -33.66 40.98 -34 42 C-35.66072849 42.68132451 -37.327767 43.34742127 -39 44 C-39.66 44.99 -40.32 45.98 -41 47 C-44.58409144 48.72567366 -48.08958801 50.2179176 -52 51 C-49.62448822 48.31463886 -47.13314963 46.39339772 -44.125 44.5 C-38.89844923 41.13197229 -34.32885786 37.09074552 -29.69775391 32.96289062 C-25.20389591 29 -25.20389591 29 -23 29 C-22.61908203 28.12601562 -22.61908203 28.12601562 -22.23046875 27.234375 C-20.86679667 24.75811967 -19.35774797 23.19479374 -17.3125 21.25 C-11.12091221 15.19276854 -5.81674561 9.07537919 -1.26171875 1.6875 C-0.63716797 0.8521875 -0.63716797 0.8521875 0 0 Z " fill="#57B3E3" transform="translate(383,338)"/>
<path d="M0 0 C0.66 0 1.32 0 2 0 C2.75087202 3.33720896 3.0097016 5.93037675 2.53515625 9.3359375 C1.69219448 15.57428283 1.85307536 21.84163336 1.875 28.125 C1.87588623 28.79064972 1.87677246 29.45629944 1.87768555 30.14212036 C1.90084227 45.11004522 2.4274537 60.04222784 3 75 C16.365 75.495 16.365 75.495 30 76 C30 76.33 30 76.66 30 77 C20.43 77 10.86 77 1 77 C0.21776377 66.20645473 -0.28146446 55.44226325 -0.5625 44.625 C-0.58334656 43.85006195 -0.60419312 43.0751239 -0.62567139 42.27670288 C-0.90043316 31.95564928 -1.09976472 21.63755311 -1.125 11.3125 C-1.12959229 10.26852051 -1.13418457 9.22454102 -1.13891602 8.14892578 C-1.13690186 7.20903809 -1.1348877 6.26915039 -1.1328125 5.30078125 C-1.13168457 4.48778564 -1.13055664 3.67479004 -1.12939453 2.8371582 C-1 1 -1 1 0 0 Z " fill="#152737" transform="translate(218,254)"/>
<path d="M0 0 C0.66 0 1.32 0 2 0 C2.11548606 13.82989961 2.05586345 27.64592403 1.7421875 41.47265625 C1.71791183 42.54957733 1.69363617 43.62649841 1.66862488 44.73605347 C1.54393657 50.17325407 1.41040294 55.61011528 1.26782227 61.046875 C1.21881459 63.07421638 1.16990091 65.10156003 1.12109375 67.12890625 C1.09405365 68.06630142 1.06701355 69.00369659 1.03915405 69.96949768 C1.00901718 71.27152382 1.00901718 71.27152382 0.97827148 72.59985352 C0.95828598 73.35621597 0.93830048 74.11257843 0.91770935 74.89186096 C1.00224578 77.05753288 1.39954893 78.92281301 2 81 C1.34 81 0.68 81 0 81 C-2.12066106 77.81900841 -2.23884303 77.1599778 -2.15112305 73.54223633 C-2.13417892 72.63891068 -2.1172348 71.73558502 -2.09977722 70.80488586 C-2.07071793 69.82384384 -2.04165863 68.84280182 -2.01171875 67.83203125 C-1.98906448 66.80559006 -1.96641022 65.77914886 -1.94306946 64.72160339 C-1.86749397 61.41826056 -1.77743441 58.11547974 -1.6875 54.8125 C-1.63777839 52.66864033 -1.58894138 50.52475995 -1.54101562 48.38085938 C-1.26213242 36.46814176 -0.85463127 24.56414578 -0.32072449 12.66011047 C-0.27909683 11.7264415 -0.23746918 10.79277252 -0.19458008 9.83081055 C-0.15706131 9.01581589 -0.11954254 8.20082123 -0.08088684 7.36112976 C0.00323502 4.90556795 0.01359273 2.4568054 0 0 Z " fill="#E4FCFE" transform="translate(402,95)"/>
<path d="M0 0 C0.33 0 0.66 0 1 0 C1.26349039 7.3376462 1.52444028 14.67537834 1.78230286 22.0132246 C1.90216403 25.4218653 2.0228428 28.83047263 2.14550781 32.23901367 C2.2870648 36.17357643 2.42485391 40.10826716 2.5625 44.04296875 C2.60624756 45.24455124 2.64999512 46.44613373 2.69506836 47.68412781 C2.96340782 55.45939178 3.05085193 63.22031081 3 71 C-4.42664316 64.24850622 -9.51128243 55.32354972 -15 47 C-14.01 46.505 -14.01 46.505 -13 46 C-12.34 47.65 -11.68 49.3 -11 51 C-10.34 51 -9.68 51 -9 51 C-7.34375 52.57421875 -7.34375 52.57421875 -5.5 54.6875 C-4.8915625 55.37199219 -4.283125 56.05648437 -3.65625 56.76171875 C-2 59 -2 59 0 64 C0 42.88 0 21.76 0 0 Z " fill="#52A9DC" transform="translate(216,258)"/>
<path d="M0 0 C0.66 0 1.32 0 2 0 C2.08564209 0.55985596 2.17128418 1.11971191 2.25952148 1.6965332 C2.64948061 4.23561208 3.04344516 6.77405368 3.4375 9.3125 C3.57220703 10.19357422 3.70691406 11.07464844 3.84570312 11.98242188 C3.97783203 12.82998047 4.10996094 13.67753906 4.24609375 14.55078125 C4.36654053 15.33106689 4.4869873 16.11135254 4.61108398 16.9152832 C4.98488611 19.18279797 4.98488611 19.18279797 6 22 C6.10025708 23.37793581 6.14820646 24.76008374 6.16113281 26.14160156 C6.17074036 26.97387268 6.1803479 27.8061438 6.19024658 28.66363525 C6.19449646 29.56354187 6.19874634 30.46344849 6.203125 31.390625 C6.20882507 32.32743103 6.21452515 33.26423706 6.22039795 34.22943115 C6.22985345 36.21999992 6.23638411 38.21058438 6.24023438 40.20117188 C6.24982995 43.1969091 6.28080082 46.19192708 6.3125 49.1875 C6.37159465 60.18597551 5.78525996 70.32527066 3 81 C1.73134087 77.61690898 2.22435614 74.75169915 2.72888184 71.23986816 C3.20952786 67.26896592 3.18334367 63.29242212 3.203125 59.296875 C3.20882507 58.37900208 3.21452515 57.46112915 3.22039795 56.51544189 C3.22980303 54.57573582 3.23636396 52.63601408 3.24023438 50.69628906 C3.24983485 47.79982603 3.28085732 44.90410633 3.3125 42.0078125 C3.37423746 30.79504462 2.57781579 20.11214581 0.64746094 9.06347656 C0.11857222 6.00296685 -0.14869928 3.11642394 0 0 Z " fill="#C6F1FB" transform="translate(453,191)"/>
<path d="M0 0 C0.33 0.66 0.66 1.32 1 2 C2.65229367 2.70153251 4.32325923 3.35909236 6 4 C8.4884829 5.23450995 10.96462845 6.48521929 13.4375 7.75 C31.50860996 16.81630211 50.05619426 23.36686863 70 27 C70 27.33 70 27.66 70 28 C62.66310251 27.74873639 55.67592283 26.89340223 48.5625 25.125 C47.90121094 24.96354492 47.23992187 24.80208984 46.55859375 24.63574219 C43.45941594 23.82801113 40.73501633 22.86635031 37.87109375 21.421875 C34.94439004 19.97245983 32.71992293 19.50435874 29.5 19.125 C25.21497133 18.42329061 22.8900644 17.55092352 19.72265625 14.4296875 C15.73592374 11.12097072 10.65083942 9.21641566 6 7 C3.99814987 6.00370885 1.99761623 5.0047534 0 4 C0 2.68 0 1.36 0 0 Z " fill="#53B0DF" transform="translate(142,387)"/>
<path d="M0 0 C5.6508751 8.47631265 4.38596171 23.47093675 4.375 33.25 C4.37578552 33.92734192 4.37657104 34.60468384 4.37738037 35.30255127 C4.32609856 72.67390144 4.32609856 72.67390144 -2 79 C-2 76.03 -2 73.06 -2 70 C-1.34 70 -0.68 70 0 70 C-0.01160156 69.41992188 -0.02320313 68.83984375 -0.03515625 68.2421875 C-0.04417969 67.46101563 -0.05320312 66.67984375 -0.0625 65.875 C-0.07410156 65.10929687 -0.08570313 64.34359375 -0.09765625 63.5546875 C0 61 0 61 0.49780273 58.27978516 C1.0319185 54.79154442 1.12952649 51.4969825 1.1328125 47.96875 C1.13413177 47.30342758 1.13545105 46.63810516 1.1368103 45.95262146 C1.13871583 43.80169926 1.13241291 41.65090882 1.125 39.5 C1.12411377 38.76911163 1.12322754 38.03822327 1.12231445 37.28518677 C1.10458298 24.83615617 0.7443719 12.42835224 0 0 Z " fill="#E7FDFF" transform="translate(411,202)"/>
<path d="M0 0 C0.66 0 1.32 0 2 0 C3.5078125 1.75 3.5078125 1.75 5.125 4 C5.66382813 4.7425 6.20265625 5.485 6.7578125 6.25 C7.16773438 6.8275 7.57765625 7.405 8 8 C7.67 8.66 7.34 9.32 7 10 C4.525 9.01 4.525 9.01 2 8 C1.97494385 9.23226318 1.9498877 10.46452637 1.92407227 11.73413086 C0.99956987 56.83889319 0.99956987 56.83889319 0 78 C-0.66 78 -1.32 78 -2 78 C-1.49758373 51.99389993 -0.9906612 25.99291115 0 0 Z " fill="#5AB2D9" transform="translate(404,94)"/>
<path d="M0 0 C4.06248489 -0.02909769 8.12494286 -0.04683174 12.1875 -0.0625 C13.91323242 -0.07506836 13.91323242 -0.07506836 15.67382812 -0.08789062 C16.78564453 -0.09111328 17.89746094 -0.09433594 19.04296875 -0.09765625 C20.06414795 -0.10289307 21.08532715 -0.10812988 22.13745117 -0.11352539 C24.87479731 -0.00496539 27.32989709 0.41731363 30 1 C41.96900205 1.57235734 54.04718201 0.61046721 66 0 C66 0.33 66 0.66 66 1 C64.54313397 1.31927064 63.08437649 1.62990834 61.625 1.9375 C60.81289063 2.11152344 60.00078125 2.28554688 59.1640625 2.46484375 C50.92258795 3.85877216 42.72227355 4.19356731 34.375 4.1875 C33.32973145 4.18741943 32.28446289 4.18733887 31.20751953 4.18725586 C20.59348775 4.1097514 10.45683254 2.76399455 0 1 C0 0.67 0 0.34 0 0 Z " fill="#D9F9FE" transform="translate(202,412)"/>
<path d="M0 0 C1.32 1.32 2.64 2.64 4 4 C3.34 4.66 2.68 5.32 2 6 C1.68701213 7.93824615 1.68701213 7.93824615 1.7215271 10.18875122 C1.71036362 11.06657257 1.69920013 11.94439392 1.68769836 12.84881592 C1.68553818 13.81410217 1.68337799 14.77938843 1.68115234 15.77392578 C1.67110672 16.78858917 1.6610611 17.80325256 1.65071106 18.84866333 C1.61973386 22.2142071 1.60280358 25.57967082 1.5859375 28.9453125 C1.56723755 31.27416683 1.54766503 33.6030143 1.5272522 35.93185425 C1.47580113 42.07045458 1.43624495 48.20907692 1.39910889 54.34777832 C1.3591504 60.60821024 1.30802097 66.86854963 1.2578125 73.12890625 C1.16089965 85.41920596 1.07654419 97.70955775 1 110 C0.67 110 0.34 110 0 110 C0 73.7 0 37.4 0 0 Z " fill="#CECECE" transform="translate(257,221)"/>
<path d="M0 0 C0.33 0.66 0.66 1.32 1 2 C2.11375 2.1546875 2.11375 2.1546875 3.25 2.3125 C6.99861133 3.24965283 8.51002986 5.10625092 11 8 C12.3125 10.3125 12.3125 10.3125 13 12 C12.34 12 11.68 12 11 12 C11 11.34 11 10.68 11 10 C10.0409375 9.566875 10.0409375 9.566875 9.0625 9.125 C7 8 7 8 6 6 C5.01 6 4.02 6 3 6 C1.70967388 15.44088608 1.66241941 24.92845418 1.44775391 34.43994141 C1.39560699 36.69182712 1.33855258 38.94355299 1.28125 41.1953125 C1.26767456 41.87465851 1.25409912 42.55400452 1.2401123 43.25393677 C1.12886502 47.58688448 0.68391428 51.7296891 0 56 C-0.33 56 -0.66 56 -1 56 C-0.67 37.52 -0.34 19.04 0 0 Z " fill="#40B1EA" transform="translate(405,100)"/>
<path d="M0 0 C0.66 0 1.32 0 2 0 C2 0.66 2 1.32 2 2 C2.66 2 3.32 2 4 2 C4.33 3.32 4.66 4.64 5 6 C5.598125 6.061875 6.19625 6.12375 6.8125 6.1875 C9.9771913 7.36295677 10.59330689 8.98565762 12 12 C12.144375 13.051875 12.28875 14.10375 12.4375 15.1875 C12.623125 16.115625 12.80875 17.04375 13 18 C14.93330603 19.09166275 14.93330603 19.09166275 17 20 C17.66666667 21.66666667 18.33333333 23.33333333 19 25 C20.95021083 26.22527948 20.95021083 26.22527948 23 27 C26.23585033 30.23585033 26.98945574 34.62097487 28 39 C24.74451247 35.97704729 22.31022942 32.79537691 20 29 C20 28.34 20 27.68 20 27 C19.34 27 18.68 27 18 27 C14 21.58823529 14 21.58823529 14 19 C13.34 19 12.68 19 12 19 C10.34375 16.76953125 10.34375 16.76953125 8.5 13.8125 C7.58734375 12.36810547 7.58734375 12.36810547 6.65625 10.89453125 C5.17379596 8.30373304 4.02309993 5.79817831 3 3 C2.34 3 1.68 3 1 3 C0.67 2.01 0.34 1.02 0 0 Z " fill="#55ADDC" transform="translate(156,241)"/>
<path d="M0 0 C14.19 0 28.38 0 43 0 C45.475 4.455 45.475 4.455 48 9 C48.99 9.66 49.98 10.32 51 11 C51.6875 14.125 51.6875 14.125 52 17 C52.99 17.33 53.98 17.66 55 18 C54.67 19.32 54.34 20.64 54 22 C53.40832031 21.14277344 52.81664062 20.28554687 52.20703125 19.40234375 C51.40888282 18.24737603 50.61070411 17.09242924 49.8125 15.9375 C49.42513672 15.37611328 49.03777344 14.81472656 48.63867188 14.23632812 C47.86238922 13.11360528 47.07784658 11.99654048 46.28442383 10.88586426 C45 9 45 9 43.99108887 7.15600586 C42.36886353 4.3895207 41.14387746 2.37404208 38.00993347 1.34925842 C35.57021484 1.09358437 33.21446548 1.05648018 30.76171875 1.09765625 C29.88095169 1.08536484 29.00018463 1.07307343 28.09272766 1.06040955 C25.29013422 1.02871258 22.49017495 1.04494571 19.6875 1.0625 C17.7831787 1.04938908 15.87887621 1.03314826 13.97460938 1.01367188 C9.31584513 0.97284572 4.65885721 0.97498813 0 1 C0 0.67 0 0.34 0 0 Z " fill="#D2FAFD" transform="translate(103,153)"/>
<path d="M0 0 C0.33 0 0.66 0 1 0 C0.85851011 1.6045556 0.71164314 3.20863767 0.5625 4.8125 C0.48128906 5.70582031 0.40007812 6.59914063 0.31640625 7.51953125 C0 10 0 10 -1 13 C-1.99 13 -2.98 13 -4 13 C-4.0825 14.216875 -4.165 15.43375 -4.25 16.6875 C-4.73384396 20.83682846 -6.27965002 22.82625835 -9 26 C-8.67 26.99 -8.34 27.98 -8 29 C-9.3125 30.5 -9.3125 30.5 -11 32 C-11.99 32 -12.98 32 -14 32 C-12.68664853 26.72628455 -10.7912638 22.40459378 -8.125 17.6875 C-4.95891044 11.93858556 -2.21466523 6.19232055 0 0 Z " fill="#5AB2D7" transform="translate(405,296)"/>
<path d="M0 0 C4.11956507 0.61226563 7.26279913 2.003198 10.9375 3.9375 C14.89748205 6.01712928 18.72270706 7.68047744 23 9 C23 9.66 23 10.32 23 11 C23.60328125 11.12117188 24.2065625 11.24234375 24.828125 11.3671875 C25.62734375 11.53476562 26.4265625 11.70234375 27.25 11.875 C28.03890625 12.03742188 28.8278125 12.19984375 29.640625 12.3671875 C31.97900258 12.99436824 33.85384513 13.89874073 36 15 C37.216875 15.33 38.43375 15.66 39.6875 16 C40.780625 16.33 41.87375 16.66 43 17 C43.495 17.99 43.495 17.99 44 19 C28.08085385 16.78559018 13.86456116 8.64786425 0 1 C0 0.67 0 0.34 0 0 Z " fill="#59ADD9" transform="translate(128,428)"/>
<path d="M0 0 C0.33 1.32 0.66 2.64 1 4 C2.32 4 3.64 4 5 4 C6 5 7 6 8 7 C9.66194453 7.35613097 11.328451 7.69208308 13 8 C13.33 8.66 13.66 9.32 14 10 C14.99 10.33 15.98 10.66 17 11 C17 11.66 17 12.32 17 13 C18.3303125 12.938125 18.3303125 12.938125 19.6875 12.875 C22.97277013 12.99897246 25.05449295 13.61387904 28 15 C28 16.32 28 17.64 28 19 C23.053843 17.50069616 18.59441796 15.44811735 14 13.125 C13.31421875 12.78597656 12.6284375 12.44695312 11.921875 12.09765625 C7.73419705 9.99582552 3.73899901 7.83608284 0 5 C-0.375 2.25 -0.375 2.25 0 0 Z " fill="#D6F9FD" transform="translate(144,384)"/>
<path d="M0 0 C0.66 0 1.32 0 2 0 C5 4.38461538 5 4.38461538 5 7 C5.66 7 6.32 7 7 7 C10 11.38461538 10 11.38461538 10 14 C10.66 14 11.32 14 12 14 C13.77854493 16.40591851 15.43592239 18.80706433 17.0625 21.3125 C17.52205078 22.00279297 17.98160156 22.69308594 18.45507812 23.40429688 C20.35369631 26.28986196 21.90053885 28.70161655 23 32 C22.34 32 21.68 32 21 32 C21 31.34 21 30.68 21 30 C20.38125 29.79375 19.7625 29.5875 19.125 29.375 C16.1639801 27.45904595 16.07355602 25.28776532 15 22 C13.69481525 20.96352976 12.36538653 19.95577057 11 19 C11 18.01 11 17.02 11 16 C10.34 16 9.68 16 9 16 C6.95830515 13.09451118 6 11.59857954 6 8 C4.68 7.34 3.36 6.68 2 6 C2 5.34 2 4.68 2 4 C1.34 4 0.68 4 0 4 C0 2.68 0 1.36 0 0 Z " fill="#59B1DE" transform="translate(180,208)"/>
<path d="M0 0 C2.0625 0.4375 2.0625 0.4375 4 1 C1.77234548 3.39724312 -0.45739721 5.79253447 -2.6875 8.1875 C-3.31333984 8.86103516 -3.93917969 9.53457031 -4.58398438 10.22851562 C-7.99307167 13.88748366 -11.43653989 17.49104788 -15 21 C-15.8125 19.3125 -15.8125 19.3125 -16 17 C-13.8125 14.5625 -13.8125 14.5625 -11 12 C-10.34 11.0925 -9.68 10.185 -9 9.25 C-6.68756804 6.64851404 -5.40667209 6.28388934 -2 6 C-1.855625 5.195625 -1.71125 4.39125 -1.5625 3.5625 C-1 1 -1 1 0 0 Z " fill="#E1FBFD" transform="translate(372,348)"/>
<path d="M0 0 C0 0.99 0 1.98 0 3 C-25.76376337 8.96942016 -25.76376337 8.96942016 -38 8 C-34.65036597 6.04200136 -31.70903951 5.56913224 -27.875 5.125 C-21.10087328 4.2407982 -14.51845442 2.86756213 -7.86669922 1.32080078 C-2.16988677 0 -2.16988677 0 0 0 Z " fill="#D4F6FD" transform="translate(298,449)"/>
<path d="M0 0 C0.33 0 0.66 0 1 0 C0.99476318 1.31194336 0.98952637 2.62388672 0.98413086 3.97558594 C0.96602969 8.84341754 0.95454922 13.71124616 0.94506836 18.57910156 C0.94003987 20.68587749 0.93321624 22.79264992 0.92456055 24.89941406 C0.91243011 27.92774314 0.90675683 30.95602606 0.90234375 33.984375 C0.89718246 34.92617615 0.89202118 35.86797729 0.88670349 36.83831787 C0.88659019 38.15923431 0.88659019 38.15923431 0.88647461 39.50683594 C0.884254 40.27960876 0.88203339 41.05238159 0.87974548 41.84857178 C1.00096418 44.01724977 1.40260301 45.91636924 2 48 C1.34 48 0.68 48 0 48 C-2.1877045 44.71844326 -2.24820967 43.79711411 -2.1875 40 C-2.18105469 39.13375 -2.17460937 38.2675 -2.16796875 37.375 C-2.02630776 34.52860248 -1.79565444 31.72241818 -1.5234375 28.88671875 C-0.95579079 22.86752152 -0.67383432 16.85258527 -0.4375 10.8125 C-0.39431641 9.76513672 -0.35113281 8.71777344 -0.30664062 7.63867188 C-0.20200491 5.09253603 -0.09982454 2.54632822 0 0 Z " fill="#CCF8FD" transform="translate(402,128)"/>
<path d="M0 0 C1 3 1 3 -0.37109375 6.3359375 C-1.047964 7.68832965 -1.73760711 9.03437783 -2.4375 10.375 C-2.79714844 11.07947266 -3.15679687 11.78394531 -3.52734375 12.50976562 C-7.00862595 19.22453043 -10.90673322 25.64237287 -15 32 C-15.33 30.68 -15.66 29.36 -16 28 C-15.01 27.67 -14.02 27.34 -13 27 C-12.505 22.545 -12.505 22.545 -12 18 C-11.01 18.33 -10.02 18.66 -9 19 C-8.01 16.03 -7.02 13.06 -6 10 C-5.34 10 -4.68 10 -4 10 C-3.67 8.02 -3.34 6.04 -3 4 C-2.34 4 -1.68 4 -1 4 C-0.67 2.68 -0.34 1.36 0 0 Z " fill="#4EAEE1" transform="translate(440,320)"/>
<path d="M0 0 C0.66 0 1.32 0 2 0 C3.4882976 6.01563645 2.66562872 11.79126686 2.0625 17.875 C1.91264648 19.47988281 1.91264648 19.47988281 1.75976562 21.1171875 C1.51335939 23.74552068 1.25990326 26.37297295 1 29 C-1.28650042 25.57024937 -1.24662214 24.30418229 -1.23046875 20.2734375 C-1.22756836 18.6028125 -1.22756836 18.6028125 -1.22460938 16.8984375 C-1.21236328 15.73570312 -1.20011719 14.57296875 -1.1875 13.375 C-1.18685547 12.20453125 -1.18621094 11.0340625 -1.18554688 9.828125 C-1.14019224 1.14019224 -1.14019224 1.14019224 0 0 Z " fill="#03122B" transform="translate(218,254)"/>
<path d="M0 0 C6.02961068 9.04441602 4.25306474 24.37699198 4.125 34.9375 C4.11493003 36.41080107 4.10581142 37.88410896 4.09765625 39.35742188 C4.07600687 42.90509384 4.04170887 46.45250022 4 50 C3.67 50 3.34 50 3 50 C3 40.76 3 31.52 3 22 C2.34 22 1.68 22 1 22 C0.67 14.74 0.34 7.48 0 0 Z " fill="#C7F5FD" transform="translate(411,202)"/>
<path d="M0 0 C1.4540625 0.0309375 1.4540625 0.0309375 2.9375 0.0625 C-0.65455527 3.85635612 -4.36936679 6.88445077 -8.6875 9.8125 C-9.25984375 10.21082031 -9.8321875 10.60914063 -10.421875 11.01953125 C-12.95646811 12.75838001 -15.13014428 14.08504809 -18.0625 15.0625 C-18.7225 14.4025 -19.3825 13.7425 -20.0625 13.0625 C-19.4025 13.0625 -18.7425 13.0625 -18.0625 13.0625 C-18.0625 12.4025 -18.0625 11.7425 -18.0625 11.0625 C-15.4225 10.4025 -12.7825 9.7425 -10.0625 9.0625 C-10.000625 8.299375 -9.93875 7.53625 -9.875 6.75 C-9.0625 4.0625 -9.0625 4.0625 -6.5625 2.3125 C-5.7375 1.9 -4.9125 1.4875 -4.0625 1.0625 C-3.0625 0.0625 -3.0625 0.0625 0 0 Z " fill="#4FAFE8" transform="translate(373.0625,407.9375)"/>
<path d="M0 0 C0.99 0 1.98 0 3 0 C2.45089575 7.3499367 1.21373403 14.38468676 -0.4375 21.5625 C-0.65470703 22.55830078 -0.87191406 23.55410156 -1.09570312 24.58007812 C-1.31033203 25.52431641 -1.52496094 26.46855469 -1.74609375 27.44140625 C-2.03504517 28.72059937 -2.03504517 28.72059937 -2.32983398 30.02563477 C-3 32 -3 32 -5 33 C-5.34686842 26.64074556 -4.25416339 21.92155874 -2 16 C-0.89485234 12.68455701 -0.67892369 9.79589889 -0.4375 6.3125 C-0.35371094 5.13300781 -0.26992188 3.95351563 -0.18359375 2.73828125 C-0.12300781 1.83464844 -0.06242187 0.93101562 0 0 Z " fill="#57AEDD" transform="translate(452,272)"/>
<path d="M0 0 C11.53421321 0.55748697 11.53421321 0.55748697 15.75 2.4375 C22.02065614 5.17086293 29.26518726 5.3052681 36 6 C36 6.66 36 7.32 36 8 C27.43354665 7.84398843 19.54055549 6.63215129 11.25 4.5625 C10.36860352 4.34505127 9.48720703 4.12760254 8.57910156 3.90356445 C2.26284122 2.26284122 2.26284122 2.26284122 0 0 Z " fill="#5AB2DB" transform="translate(172,447)"/>
<path d="M0 0 C7.29700782 -0.29783705 13.16786113 1.72262038 20 4 C22.32784874 4.68798768 24.66240456 5.34547328 27 6 C27 6.66 27 7.32 27 8 C27.66 8.33 28.32 8.66 29 9 C23.84499475 8.26357068 18.93925242 6.96988399 13.9375 5.5625 C13.14794922 5.34529297 12.35839844 5.12808594 11.54492188 4.90429688 C7.59448531 3.80161844 3.77252562 2.63197788 0 1 C0 0.67 0 0.34 0 0 Z " fill="#D8F9FD" transform="translate(173,403)"/>
<path d="M0 0 C0.99 0 1.98 0 3 0 C6.45263456 3.45263456 7.55074862 6.17054764 8 11 C9.32 11 10.64 11 12 11 C12.66 13.31 13.32 15.62 14 18 C14.66 18 15.32 18 16 18 C16.33 19.98 16.66 21.96 17 24 C13.69369715 20.87241622 11.23155448 17.95593748 9 14 C8.443125 13.278125 7.88625 12.55625 7.3125 11.8125 C6 10 6 10 6 8 C5.34 8 4.68 8 4 8 C0 2.58823529 0 2.58823529 0 0 Z " fill="#50B0E0" transform="translate(184,280)"/>
<path d="M0 0 C5.30169964 -0.19836551 10.60122365 -0.34319949 15.90576172 -0.43945312 C17.7082279 -0.47958705 19.51043517 -0.5341109 21.31201172 -0.60351562 C36.29510321 -1.16610548 36.29510321 -1.16610548 40.50146484 1.7109375 C42.07527671 3.7784293 43.08438035 5.5778123 44 8 C44.680625 9.485 44.680625 9.485 45.375 11 C45.58125 11.66 45.7875 12.32 46 13 C40.14602788 10.39823461 40.30906806 8.61813612 37 2 C18.685 1.505 18.685 1.505 0 1 C0 0.67 0 0.34 0 0 Z " fill="#58B1DD" transform="translate(105,154)"/>
<path d="M0 0 C1.125 3.75 1.125 3.75 0 6 C-0.66 6 -1.32 6 -2 6 C-2.2475 7.11375 -2.495 8.2275 -2.75 9.375 C-4 13 -4 13 -6.0625 14.25 C-6.701875 14.4975 -7.34125 14.745 -8 15 C-8.33 15.99 -8.66 16.98 -9 18 C-11.0625 19.6875 -11.0625 19.6875 -13 21 C-13.66 20.67 -14.32 20.34 -15 20 C-14.25234375 19.05898438 -13.5046875 18.11796875 -12.734375 17.1484375 C-11.73946379 15.89071956 -10.74467883 14.63290173 -9.75 13.375 C-9.25886719 12.75753906 -8.76773437 12.14007813 -8.26171875 11.50390625 C-5.31695237 7.77386883 -2.5793722 3.99188555 0 0 Z " fill="#D1F4FB" transform="translate(416,365)"/>
<path d="M0 0 C0.66 0 1.32 0 2 0 C1.51385121 5.12936579 -1.08915273 8.56878185 -3.9375 12.6875 C-4.39318359 13.36361328 -4.84886719 14.03972656 -5.31835938 14.73632812 C-7.1019665 17.36081591 -8.75030256 19.75030256 -11 22 C-11 19.69 -11 17.38 -11 15 C-10.01 14.67 -9.02 14.34 -8 14 C-7.67 13.175 -7.34 12.35 -7 11.5 C-6.67 10.675 -6.34 9.85 -6 9 C-5.01 8.67 -4.02 8.34 -3 8 C-2.67 6.35 -2.34 4.7 -2 3 C-1.34 3 -0.68 3 0 3 C0 2.01 0 1.02 0 0 Z " fill="#E0FCFD" transform="translate(391,321)"/>
<path d="M0 0 C9.77365609 4.80208536 19.39176962 9.87712835 29 15 C25.24121094 16.08398438 25.24121094 16.08398438 23.0703125 15.328125 C22.42835938 14.97234375 21.78640625 14.6165625 21.125 14.25 C20.43664062 13.87875 19.74828125 13.5075 19.0390625 13.125 C18.36617187 12.75375 17.69328125 12.3825 17 12 C15.845 11.4225 14.69 10.845 13.5 10.25 C12.2625 9.63125 12.2625 9.63125 11 9 C11 8.34 11 7.68 11 7 C10.2575 6.87625 9.515 6.7525 8.75 6.625 C6.19858515 6.04513299 4.2732427 5.26291261 2 4 C2 3.34 2 2.68 2 2 C1.34 2 0.68 2 0 2 C0 1.34 0 0.68 0 0 Z " fill="#D4F7FD" transform="translate(120,424)"/>
<path d="M0 0 C0 0.66 0 1.32 0 2 C-1.74552473 2.84266711 -3.4966208 3.67380038 -5.25 4.5 C-6.22453125 4.9640625 -7.1990625 5.428125 -8.203125 5.90625 C-11 7 -11 7 -15 7 C-15 7.66 -15 8.32 -15 9 C-18.40431947 11.26954631 -20.16524202 11.36549949 -24.1875 11.625 C-25.27417969 11.69976562 -26.36085938 11.77453125 -27.48046875 11.8515625 C-28.72763672 11.92503906 -28.72763672 11.92503906 -30 12 C-26.57844458 10.15438267 -23.05098504 8.93863903 -19.375 7.6875 C-13.97088591 5.79211134 -8.9307106 3.62993534 -3.890625 0.91796875 C-2 0 -2 0 0 0 Z " fill="#65B8DA" transform="translate(318,396)"/>
<path d="M0 0 C0 2.66420516 -0.09162237 4.52260646 -1 7 C-1.99 7.33 -2.98 7.66 -4 8 C-4.33 8.99 -4.66 9.98 -5 11 C-5.99 11.33 -6.98 11.66 -8 12 C-10.51696446 13.5545957 -11.77822147 14.35314597 -12.75 17.1875 C-12.8325 17.785625 -12.915 18.38375 -13 19 C-14.65 19 -16.3 19 -18 19 C-12.44964797 12.21623641 -6.23557973 6.14477032 0 0 Z " fill="#E6E6E6" transform="translate(115,105)"/>
<path d="M0 0 C0.33 0 0.66 0 1 0 C1.10861833 2.70942393 1.18758577 5.414439 1.25 8.125 C1.28351563 8.88554687 1.31703125 9.64609375 1.3515625 10.4296875 C1.4450562 15.85232207 0.4087631 18.59482923 -3 23 C-3.78215588 25.7282504 -3.78215588 25.7282504 -4 28 C-4.66 28 -5.32 28 -6 28 C-3.28723404 15.97340426 -3.28723404 15.97340426 -1.875 11.1875 C-0.84732023 7.44380941 -0.40614189 3.85834795 0 0 Z " fill="#59B4E0" transform="translate(412,266)"/>
<path d="M0 0 C0.66 0.99 1.32 1.98 2 3 C0.96746839 7.64639223 -1.05794704 11.27916831 -4 15 C-6.25 15.875 -6.25 15.875 -8 16 C-6.57250019 12.20950293 -4.83763458 8.72877544 -2.875 5.1875 C-2.33617187 4.21167969 -1.79734375 3.23585938 -1.2421875 2.23046875 C-0.83226562 1.49441406 -0.42234375 0.75835937 0 0 Z " fill="#DAF7FC" transform="translate(438,328)"/>
<path d="M0 0 C0 3.94042779 -1.46184088 5.08858219 -4 8 C-6 10 -6 10 -8 11 C-8.103125 11.639375 -8.20625 12.27875 -8.3125 12.9375 C-8.539375 13.618125 -8.76625 14.29875 -9 15 C-10.65697379 15.69040574 -12.3255761 16.3530635 -14 17 C-16.77152212 19.52056045 -16.77152212 19.52056045 -19 22 C-19.66 21.67 -20.32 21.34 -21 21 C-14.07 14.07 -7.14 7.14 0 0 Z " fill="#191919" transform="translate(95,68)"/>
<path d="M0 0 C-0.99 0 -1.98 0 -3 0 C-3 0.66 -3 1.32 -3 2 C-12.09838514 4.5571371 -20.44947153 6.72843014 -30 6 C-26.4966766 3.66445107 -23.31118066 3.17439314 -19.25 2.5 C-15.14431394 1.80295255 -11.12823609 1.086876 -7.13671875 -0.1171875 C-4.12184191 -0.96570825 -2.8500058 -1.14000232 0 0 Z " fill="#5DB4DD" transform="translate(288,409)"/>
<path d="M0 0 C0.99 0 1.98 0 3 0 C-0.20551354 8.51275531 -5.40084977 15.89185893 -11 23 C-11.33 22.01 -11.66 21.02 -12 20 C-11.0390625 18.28125 -11.0390625 18.28125 -9.625 16.5 C-7.82427389 14.2063377 -6.94399506 12.83198518 -6 10 C-5.01 9.34 -4.02 8.68 -3 8 C-1.99831469 6.05167065 -1.99831469 6.05167065 -1.3125 3.875 C-1.06113281 3.15054687 -0.80976563 2.42609375 -0.55078125 1.6796875 C-0.36902344 1.12539063 -0.18726563 0.57109375 0 0 Z " fill="#51B0DB" transform="translate(421,352)"/>
<path d="M0 0 C0.66 0.33 1.32 0.66 2 1 C0.88200014 2.33920838 -0.24461897 3.67122556 -1.375 5 C-2.31472656 6.11375 -2.31472656 6.11375 -3.2734375 7.25 C-4.12808594 8.11625 -4.12808594 8.11625 -5 9 C-5.66 9 -6.32 9 -7 9 C-7.185625 9.556875 -7.37125 10.11375 -7.5625 10.6875 C-9.66360714 14.06754192 -12.70665994 15.85140381 -16 18 C-16 17.01 -16 16.02 -16 15 C-15.34 15 -14.68 15 -14 15 C-13.6596875 13.576875 -13.6596875 13.576875 -13.3125 12.125 C-12 9 -12 9 -9.8125 8.0625 C-8.884375 7.711875 -7.95625 7.36125 -7 7 C-4.52007734 4.80305606 -2.25245681 2.42772002 0 0 Z " fill="#5BAEDD" transform="translate(400,384)"/>
<path d="M0 0 C3.23087421 0.55704728 5.02361137 1.33187535 7 4 C7 5.32 7 6.64 7 8 C7.99 8 8.98 8 10 8 C11.35439668 10.70879335 11.06501451 13.00933268 11 16 C7.82968091 13.0471143 5.54306125 9.98237794 3.25 6.3125 C2.63640625 5.33925781 2.0228125 4.36601562 1.390625 3.36328125 C0 1 0 1 0 0 Z " fill="#D2F9FC" transform="translate(170,192)"/>
<path d="M0 0 C0.66 0 1.32 0 2 0 C3.5078125 1.75 3.5078125 1.75 5.125 4 C5.66382813 4.7425 6.20265625 5.485 6.7578125 6.25 C7.16773438 6.8275 7.57765625 7.405 8 8 C7.67 8.66 7.34 9.32 7 10 C4.525 9.01 4.525 9.01 2 8 C1.67 11.3 1.34 14.6 1 18 C0.67 18 0.34 18 0 18 C0 12.06 0 6.12 0 0 Z " fill="#70BBDB" transform="translate(404,94)"/>
<path d="M0 0 C3.03082761 0.90105686 4.64912902 1.50293278 6.5 4.125 C7.2425 5.548125 7.2425 5.548125 8 7 C9.36139375 9.05009882 10.72967736 11.09498323 12.109375 13.1328125 C13 15 13 15 12 18 C10.37145746 15.7524911 8.74709026 13.50215838 7.125 11.25 C6.43470703 10.29867187 6.43470703 10.29867187 5.73046875 9.328125 C3.56337959 6.31304443 1.50142178 3.41702887 0 0 Z " fill="#D4F7FC" transform="translate(199,233)"/>
<path d="M0 0 C0.33 0 0.66 0 1 0 C1 3.96 1 7.92 1 12 C2.98 12.495 2.98 12.495 5 13 C7.25 15.0625 7.25 15.0625 9 17 C8.67 17.99 8.34 18.98 8 20 C4.71333763 18.45937701 2.2569347 16.87066255 0 14 C-0.71556021 9.26467508 -0.46884774 4.75359512 0 0 Z " fill="#54A9D0" transform="translate(103,398)"/>
<path d="M0 0 C4.30756184 4.30756184 4.125 12.85871225 4.125 18.75 C4.08375 19.8225 4.0425 20.895 4 22 C0.02300421 14.61415067 -0.24052011 8.25785714 0 0 Z " fill="#4EADDC" transform="translate(452,194)"/>
<path d="M0 0 C2.66733869 0.45466 5.33382038 0.91363115 8 1.375 C8.74378906 1.50132812 9.48757812 1.62765625 10.25390625 1.7578125 C15.23805579 2.62462112 20.10513747 3.72066093 25 5 C25 5.33 25 5.66 25 6 C18.13484138 6.26404456 11.74153283 5.25841946 5 4 C5 3.34 5 2.68 5 2 C3.35 1.67 1.7 1.34 0 1 C0 0.67 0 0.34 0 0 Z " fill="#E2FCFE" transform="translate(183,451)"/>
<path d="M0 0 C4.49316995 4.09671378 7.97813973 8.71434062 11 14 C11 14.66 11 15.32 11 16 C11.99 16.33 12.98 16.66 14 17 C14 17.99 14 18.98 14 20 C13.34 20 12.68 20 12 20 C9.70351351 17.4385343 9 16.52032428 9 13 C8.34 13 7.68 13 7 13 C5.2734375 10.6640625 5.2734375 10.6640625 3.375 7.625 C2.74335938 6.62726563 2.11171875 5.62953125 1.4609375 4.6015625 C0 2 0 2 0 0 Z " fill="#58B0DB" transform="translate(166,188)"/>
<path d="M0 0 C3 1 3 1 4.1875 3.25 C4.99938294 5.99791147 5.16260121 8.15447889 5 11 C5.66 11 6.32 11 7 11 C8.4783226 13.95664519 8.06032783 16.74229737 8 20 C6.40837963 17.61256944 5.4666182 15.86435118 4.4921875 13.2421875 C4.22792969 12.53449219 3.96367187 11.82679688 3.69140625 11.09765625 C3.42199219 10.36417969 3.15257812 9.63070312 2.875 8.875 C2.59785156 8.13378906 2.32070313 7.39257812 2.03515625 6.62890625 C0 1.14501232 0 1.14501232 0 0 Z " fill="#CDF5FD" transform="translate(441,153)"/>
<path d="M0 0 C0.66 0 1.32 0 2 0 C3.65625 2.23046875 3.65625 2.23046875 5.5 5.1875 C6.1084375 6.15042969 6.716875 7.11335937 7.34375 8.10546875 C8.82620404 10.69626696 9.97690007 13.20182169 11 16 C5.22480181 11.53806605 1.42729235 7.42192021 0 0 Z " fill="#D2F7FB" transform="translate(157,244)"/>
<path d="M0 0 C4.81035973 4.3730543 8.59926143 9.46277438 12 15 C12 15.66 12 16.32 12 17 C11.34 17 10.68 17 10 17 C10 16.34 10 15.68 10 15 C9.34 15 8.68 15 8 15 C5.3879169 13.11930017 5.00531495 12.02464205 4.3125 8.8125 C4.209375 7.884375 4.10625 6.95625 4 6 C3.34 6 2.68 6 2 6 C1.34 4.02 0.68 2.04 0 0 Z " fill="#58AED7" transform="translate(203,240)"/>
<path d="M0 0 C1.134375 0.020625 2.26875 0.04125 3.4375 0.0625 C0.00301089 4.24361718 -4.46335222 6.45794192 -9.5625 8.0625 C-10.2225 7.7325 -10.8825 7.4025 -11.5625 7.0625 C-10.77875 6.815 -9.995 6.5675 -9.1875 6.3125 C-6.20509316 4.89230627 -5.7214951 4.05657067 -4.5625 1.0625 C-3.5625 0.0625 -3.5625 0.0625 0 0 Z " fill="#56B3DE" transform="translate(351.5625,422.9375)"/>
<path d="M0 0 C0.25 2.3125 0.25 2.3125 0 5 C-3.05901592 8.42609783 -6.59032988 8.57599326 -11 9 C-2.25 0 -2.25 0 0 0 Z " fill="#DBF8FB" transform="translate(385,402)"/>
<path d="M0 0 C0.33 0 0.66 0 1 0 C1.09688221 5.44693314 1.12862175 10.63904667 0 16 C-0.66 16 -1.32 16 -2 16 C-2 17.32 -2 18.64 -2 20 C-2.66 20 -3.32 20 -4 20 C-2.9413873 13.24289769 -1.77874156 6.60675438 0 0 Z " fill="#D1F5FD" transform="translate(453,282)"/>
<path d="M0 0 C2.99381354 2.80466193 5.1993621 5.61184269 7.3125 9.125 C8.11107422 10.42824219 8.11107422 10.42824219 8.92578125 11.7578125 C9.28027344 12.49773437 9.63476562 13.23765625 10 14 C9.67 14.66 9.34 15.32 9 16 C7 14.8125 7 14.8125 5 13 C4.75 10.3125 4.75 10.3125 5 8 C4.360625 7.79375 3.72125 7.5875 3.0625 7.375 C1 6 1 6 0.25 2.875 C0.1675 1.92625 0.085 0.9775 0 0 Z " fill="#54B0E3" transform="translate(418,112)"/>
<path d="M0 0 C1 3 1 3 -0.36328125 6.3203125 C-1.00267748 7.59378775 -1.65287331 8.86188505 -2.3125 10.125 C-2.63412109 10.77082031 -2.95574219 11.41664063 -3.28710938 12.08203125 C-5.72829433 16.86414717 -5.72829433 16.86414717 -8 18 C-7.34 15.36 -6.68 12.72 -6 10 C-5.34 10 -4.68 10 -4 10 C-3.67 8.02 -3.34 6.04 -3 4 C-2.34 4 -1.68 4 -1 4 C-0.67 2.68 -0.34 1.36 0 0 Z " fill="#5AAFDB" transform="translate(440,320)"/>
<path d="M0 0 C4.21814817 3.9700218 7.61227103 8.30840284 11 13 C10.67 13.66 10.34 14.32 10 15 C6.4335353 12.74123902 5.519991 10.85064385 4 7 C3.01 6.67 2.02 6.34 1 6 C0.67 4.02 0.34 2.04 0 0 Z " fill="#57ADD8" transform="translate(151,167)"/>
<path d="M0 0 C0.515625 0.2475 1.03125 0.495 1.5625 0.75 C-0.72252851 4.17754276 -1.57584634 4.63441117 -5.4375 5.75 C-7.7695802 5.82646165 -10.10595878 5.84143299 -12.4375 5.75 C-3.30416667 -0.33888889 -3.30416667 -0.33888889 0 0 Z " fill="#D6F7FD" transform="translate(338.4375,433.25)"/>
<path d="M0 0 C0.99 0.33 1.98 0.66 3 1 C-0.0622744 3.48627517 -3.1457054 5.09989404 -6.75 6.6875 C-7.73484375 7.12449219 -8.7196875 7.56148438 -9.734375 8.01171875 C-10.48203125 8.33785156 -11.2296875 8.66398437 -12 9 C-12.33 8.01 -12.66 7.02 -13 6 C-9.535 5.505 -9.535 5.505 -6 5 C-5.67 4.01 -5.34 3.02 -5 2 C-3.35 2 -1.7 2 0 2 C0 1.34 0 0.68 0 0 Z " fill="#DCFAFE" transform="translate(321,391)"/>
<path d="M0 0 C1.32830615 3.98491845 0.23204404 5.40048548 -1.4375 9.1875 C-1.91058594 10.27417969 -2.38367188 11.36085938 -2.87109375 12.48046875 C-3.42990234 13.72763672 -3.42990234 13.72763672 -4 15 C-5.48165503 12.03668994 -4.48358108 10.10295983 -3.6875 6.9375 C-3.42324219 5.85339844 -3.15898437 4.76929688 -2.88671875 3.65234375 C-2 1 -2 1 0 0 Z " fill="#50ABDB" transform="translate(446,305)"/>
<path d="M0 0 C3.10468986 2.54020079 3.98485936 5.17370067 5 9 C5 10.32 5 11.64 5 13 C4.34 13 3.68 13 3 13 C0.33409063 8.44573816 -0.31563182 5.26053037 0 0 Z " fill="#48B0DA" transform="translate(442,159)"/>
<path d="M0 0 C0.66 0 1.32 0 2 0 C2 0.99 2 1.98 2 3 C2.66 3 3.32 3 4 3 C6.84450614 6.71973879 7.3227506 9.37390802 7 14 C3.94998169 10.33997803 0 4.92148529 0 0 Z " fill="#D8F9FD" transform="translate(434,137)"/>
<path d="M0 0 C4.16138263 -0.08159574 7.9472484 0.01751476 12 1 C12.33 2.32 12.66 3.64 13 5 C11.39402675 4.54803755 9.79027492 4.08817673 8.1875 3.625 C6.84751953 3.24214844 6.84751953 3.24214844 5.48046875 2.8515625 C3 2 3 2 0 0 Z " fill="#CCF3FA" transform="translate(173,403)"/>
<path d="M0 0 C0.66 0 1.32 0 2 0 C0.68938409 4.23429756 -0.94356259 8.07407404 -3 12 C-3.33 12 -3.66 12 -4 12 C-4 9.36 -4 6.72 -4 4 C-2.68 3.67 -1.36 3.34 0 3 C0 2.01 0 1.02 0 0 Z " fill="#D7F9FA" transform="translate(400,304)"/>
<path d="M0 0 C12.66970387 -0.3690205 12.66970387 -0.3690205 18 2 C18 2.33 18 2.66 18 3 C11.71739294 3.23268915 6.11980533 2.40454548 0 1 C0 0.67 0 0.34 0 0 Z " fill="#BCEFFA" transform="translate(202,412)"/>
<path d="M0 0 C0.66 0.33 1.32 0.66 2 1 C0.625 2.5 0.625 2.5 -1 4 C-1.66 4 -2.32 4 -3 4 C-3 4.66 -3 5.32 -3 6 C-5.70879335 7.35439668 -8.00933268 7.06501451 -11 7 C-7.53252172 4.22601737 -3.93597489 2.04087587 0 0 Z " fill="#5AB6DF" transform="translate(329,389)"/>
<path d="M0 0 C1 2 1 2 0.75 4.0625 C0.5025 4.701875 0.255 5.34125 0 6 C-0.99 6.33 -1.98 6.66 -3 7 C-3.33 7.99 -3.66 8.98 -4 10 C-5.32 9.67 -6.64 9.34 -8 9 C-6.85459775 7.68712379 -5.70866567 6.37470979 -4.5625 5.0625 C-3.92441406 4.33160156 -3.28632813 3.60070312 -2.62890625 2.84765625 C-1.77458541 1.87860647 -0.91348825 0.91348825 0 0 Z " fill="#CEF3FC" transform="translate(400,386)"/>
<path d="M0 0 C0.66 0.33 1.32 0.66 2 1 C1.71905418 2.8141927 1.42493567 4.62635001 1.125 6.4375 C0.88136719 7.95150391 0.88136719 7.95150391 0.6328125 9.49609375 C0.42398437 10.32238281 0.21515625 11.14867187 0 12 C-0.99 12.495 -0.99 12.495 -2 13 C-2.16682272 8.07872966 -2.24828052 4.49656104 0 0 Z " fill="#5CB5E3" transform="translate(449,292)"/>
<path d="M0 0 C1.48726312 2.97452623 0.68748446 5.24830248 0.1875 8.5 C0.01605469 9.6653125 -0.15539062 10.830625 -0.33203125 12.03125 C-1 15 -1 15 -3 17 C-3 14.03 -3 11.06 -3 8 C-2.34 8 -1.68 8 -1 8 C-1.020625 6.865625 -1.04125 5.73125 -1.0625 4.5625 C-1 1 -1 1 0 0 Z " fill="#CAF4FC" transform="translate(412,264)"/>
<path d="M0 0 C3.3938635 1.13128783 3.56440606 1.50169353 5.125 4.5 C6.64336454 7.73982771 6.64336454 7.73982771 8 9 C8.04063832 10.66617115 8.042721 12.33388095 8 14 C4.17398376 9.76405345 2.13637096 5.21592698 0 0 Z " fill="#D0F7FD" transform="translate(426,123)"/>
<path d="M0 0 C1.5 1.1875 1.5 1.1875 3 3 C3.125 5.625 3.125 5.625 3 8 C3.33 8.33 3.66 8.66 4 9 C4.14115161 11.67058851 4.04247107 14.32432238 4 17 C3.67 17 3.34 17 3 17 C2.49453964 14.91798472 1.99583165 12.83432933 1.5 10.75 C1.2215625 9.58984375 0.943125 8.4296875 0.65625 7.234375 C0 4 0 4 0 0 Z " fill="#39B1ED" transform="translate(412,195)"/>
<path d="M0 0 C1.32 0.33 2.64 0.66 4 1 C1.03 3.64 -1.94 6.28 -5 9 C-5 4.61031544 -2.87194899 3.23094261 0 0 Z " fill="#D6F9FD" transform="translate(348,372)"/>
<path d="M0 0 C0.598125 0.763125 1.19625 1.52625 1.8125 2.3125 C3.84004112 4.91335259 3.84004112 4.91335259 5.75 6.6875 C7 8 7 8 7 10 C2.37837838 8.54054054 2.37837838 8.54054054 0.6875 6.125 C0 4 0 4 0 0 Z " fill="#C8F3FC" transform="translate(189,288)"/>
<path d="M0 0 C-10.37357631 3.44419134 -10.37357631 3.44419134 -16 3 C-14.68 2.67 -13.36 2.34 -12 2 C-12 1.34 -12 0.68 -12 0 C-3.96428571 -1.20535714 -3.96428571 -1.20535714 0 0 Z " fill="#D0F8FD" transform="translate(284,409)"/>
<path d="M0 0 C0.66 0.99 1.32 1.98 2 3 C0.41641358 6.16717283 -0.45263699 7.73268318 -3.6875 9.3125 C-4.450625 9.539375 -5.21375 9.76625 -6 10 C-4.34832443 6.4213696 -2.21713508 3.25179812 0 0 Z " fill="#151718" transform="translate(429,375)"/>
<path d="M0 0 C0.66 0 1.32 0 2 0 C1.67 1.98 1.34 3.96 1 6 C0.01 6.33 -0.98 6.66 -2 7 C-3.68538601 8.99665314 -3.68538601 8.99665314 -5 11 C-4.46968862 6.4923533 -2.74778884 3.58045212 0 0 Z " fill="#4CB4E3" transform="translate(383,338)"/>
<path d="M0 0 C0.99 1.32 1.98 2.64 3 4 C1.6875 6 1.6875 6 0 8 C-0.99 8 -1.98 8 -3 8 C-1.125 1.125 -1.125 1.125 0 0 Z " fill="#5AB6EC" transform="translate(394,320)"/>
<path d="M0 0 C0.33 0 0.66 0 1 0 C0.85851011 1.6045556 0.71164314 3.20863767 0.5625 4.8125 C0.48128906 5.70582031 0.40007812 6.59914063 0.31640625 7.51953125 C0 10 0 10 -1 13 C-1.66 13 -2.32 13 -3 13 C-2.88490339 11.58249437 -2.75746342 10.16598831 -2.625 8.75 C-2.55539062 7.96109375 -2.48578125 7.1721875 -2.4140625 6.359375 C-1.98492887 3.914123 -1.21399362 2.15163097 0 0 Z " fill="#4FB1E5" transform="translate(405,296)"/>
<path d="M0 0 C4.29 1.32 8.58 2.64 13 4 C13 4.33 13 4.66 13 5 C7.73946963 5.31563182 4.55426184 4.66590937 0 2 C0 1.34 0 0.68 0 0 Z " fill="#D2F7FE" transform="translate(153,441)"/>
<path d="M0 0 C-1 3 -1 3 -2.92578125 3.984375 C-3.71339844 4.23703125 -4.50101562 4.4896875 -5.3125 4.75 C-6.09238281 5.01296875 -6.87226563 5.2759375 -7.67578125 5.546875 C-10.16921091 6.03298902 -11.6181897 5.80665429 -14 5 C-12.04350603 4.16235732 -10.08474444 3.33000941 -8.125 2.5 C-6.48917969 1.80390625 -6.48917969 1.80390625 -4.8203125 1.09375 C-2 0 -2 0 0 0 Z " fill="#CCF7FC" transform="translate(326,439)"/>
<path d="M0 0 C-2.68092691 2.68092691 -4.39167363 2.38670257 -8.125 2.625 C-9.22070312 2.69976562 -10.31640625 2.77453125 -11.4453125 2.8515625 C-12.28835938 2.90054687 -13.13140625 2.94953125 -14 3 C-4.63580818 -1.78300315 -4.63580818 -1.78300315 0 0 Z " fill="#55B1DE" transform="translate(302,405)"/>
<path d="M0 0 C5.57142857 5.14285714 5.57142857 5.14285714 6 9 C4.125 8.8125 4.125 8.8125 2 8 C0.47835901 5.10888212 0 3.28176588 0 0 Z " fill="#D4F7FD" transform="translate(202,307)"/>
<path d="M0 0 C0.66 0.33 1.32 0.66 2 1 C-0.23775234 4.3566285 -0.93320048 4.57996014 -4.625 5.6875 C-5.44226563 5.93886719 -6.25953125 6.19023437 -7.1015625 6.44921875 C-7.72804688 6.63097656 -8.35453125 6.81273437 -9 7 C-6.28672425 4.15635664 -3.30410823 2.12931419 0 0 Z " fill="#CDF3FB" transform="translate(364,417)"/>
<path d="M0 0 C2.88437779 1.29299694 4.87219421 2.65941363 7 5 C6.67 5.99 6.34 6.98 6 8 C2.51167694 5.79072873 1.26941497 3.91402949 0 0 Z " fill="#50AFE7" transform="translate(105,410)"/>
<path d="M0 0 C0.66 0 1.32 0 2 0 C2.33 2.97 2.66 5.94 3 9 C2.01 9.33 1.02 9.66 0 10 C0 6.7 0 3.4 0 0 Z " fill="#42B1E6" transform="translate(413,264)"/>
<path d="M0 0 C4 1 4 1 5.3125 2.8125 C6 5 6 5 5 9 C3.35 6.03 1.7 3.06 0 0 Z " fill="#CCF3FE" transform="translate(420,114)"/>
<path d="M0 0 C1.66611905 -0.042721 3.33382885 -0.04063832 5 0 C6 1 6 1 6.0625 4.0625 C6.041875 5.031875 6.02125 6.00125 6 7 C1.125 2.25 1.125 2.25 0 0 Z " fill="#D9F7FD" transform="translate(408,98)"/>
<path d="M0 0 C2.475 0.495 2.475 0.495 5 1 C5 1.66 5 2.32 5 3 C7.475 3.99 7.475 3.99 10 5 C9.01 5.495 9.01 5.495 8 6 C4.4375 4.75 4.4375 4.75 1 3 C0.67 2.01 0.34 1.02 0 0 Z " fill="#6BB7E1" transform="translate(146,436)"/>
<path d="M0 0 C0.33 0 0.66 0 1 0 C1 4.29 1 8.58 1 13 C0.01 12.34 -0.98 11.68 -2 11 C-2 10.01 -2 9.02 -2 8 C-1.34 8 -0.68 8 0 8 C0 5.36 0 2.72 0 0 Z " fill="#5C9CC0" transform="translate(218,316)"/>
<path d="M0 0 C2.64 0 5.28 0 8 0 C8.33 0.66 8.66 1.32 9 2 C6.69 2.33 4.38 2.66 2 3 C2 2.34 2 1.68 2 1 C1.34 0.67 0.68 0.34 0 0 Z " fill="#3DB0EE" transform="translate(206,452)"/>
<path d="M0 0 C0.99 0 1.98 0 3 0 C1.55746343 3.36591866 -0.33264727 5.51047079 -3 8 C-2.67 6.35 -2.34 4.7 -2 3 C-1.34 3 -0.68 3 0 3 C0 2.01 0 1.02 0 0 Z " fill="#56AED9" transform="translate(405,376)"/>
<path d="M0 0 C0.99 0 1.98 0 3 0 C1.8141763 3.37503669 0.72426311 5.64722731 -2 8 C-1.125 2.25 -1.125 2.25 0 0 Z " fill="#4AABE1" transform="translate(421,352)"/>
<path d="M0 0 C0.66 0.66 1.32 1.32 2 2 C-0.97 4.475 -0.97 4.475 -4 7 C-4.33 6.01 -4.66 5.02 -5 4 C-3 2 -3 2 0 0 Z " fill="#EDEDED" transform="translate(92,68)"/>
<path d="M0 0 C0 0.99 0 1.98 0 3 C-4.455 3.495 -4.455 3.495 -9 4 C-8.01 3.67 -7.02 3.34 -6 3 C-6 2.34 -6 1.68 -6 1 C-3.92446352 0.4465236 -2.15634036 0 0 0 Z " fill="#D7FAFF" transform="translate(298,449)"/>
<path d="M0 0 C0.33 0.66 0.66 1.32 1 2 C-2.61973402 3.31626692 -5.09567131 4 -9 4 C-9 3.34 -9 2.68 -9 2 C-6.03 1.34 -3.06 0.68 0 0 Z " fill="#3CAEEE" transform="translate(294,407)"/>
<path d="M0 0 C1.32 0.33 2.64 0.66 4 1 C-1.75 6 -1.75 6 -4 6 C-3.67 5.01 -3.34 4.02 -3 3 C-2.34 3 -1.68 3 -1 3 C-0.67 2.01 -0.34 1.02 0 0 Z " fill="#5DB0DE" transform="translate(380,402)"/>
<path d="M0 0 C0.66 0.33 1.32 0.66 2 1 C1.67 1.99 1.34 2.98 1 4 C-3.455 4.495 -3.455 4.495 -8 5 C-8 4.34 -8 3.68 -8 3 C-5.36 2.67 -2.72 2.34 0 2 C0 1.34 0 0.68 0 0 Z " fill="#3DB5EA" transform="translate(326,393)"/>
<path d="M0 0 C-1.75 2.0625 -1.75 2.0625 -4 4 C-6.25 3.75 -6.25 3.75 -8 3 C-5.53387212 -0.1151089 -3.89156016 -0.31553191 0 0 Z " fill="#51B7EA" transform="translate(371,359)"/>
<path d="M0 0 C5.57142857 5.14285714 5.57142857 5.14285714 6 9 C4.125 8.4375 4.125 8.4375 2 7 C0.75 3.375 0.75 3.375 0 0 Z " fill="#D0F7FC" transform="translate(182,279)"/>
<path d="M0 0 C0 2.31 0 4.62 0 7 C-1.37562854 5.71034824 -2.70766393 4.37310707 -4 3 C-4 2.34 -4 1.68 -4 1 C-1 0 -1 0 0 0 Z " fill="#EFEFEF" transform="translate(328,254)"/>
<path d="M0 0 C1.67542976 0.28604898 3.34385343 0.61781233 5 1 C3.68 2.32 2.36 3.64 1 5 C0.34 3.68 -0.32 2.36 -1 1 C-0.67 0.67 -0.34 0.34 0 0 Z " fill="#121212" transform="translate(75,58)"/>
<path d="M0 0 C0.33 0.66 0.66 1.32 1 2 C-0.32 3.65 -1.64 5.3 -3 7 C-3.99 6.67 -4.98 6.34 -6 6 C-4.02 4.02 -2.04 2.04 0 0 Z " fill="#282A2B" transform="translate(397,411)"/>
<path d="M0 0 C0.99 0.33 1.98 0.66 3 1 C-2.75 6 -2.75 6 -5 6 C-4.67 5.01 -4.34 4.02 -4 3 C-3.01 3 -2.02 3 -1 3 C-0.67 2.01 -0.34 1.02 0 0 Z " fill="#60ABDC" transform="translate(373,408)"/>
<path d="M0 0 C0 2.33333333 0 4.66666667 0 7 C-1.32 7.33 -2.64 7.66 -4 8 C-2.25 2.25 -2.25 2.25 0 0 Z " fill="#191C1C" transform="translate(415,393)"/>
<path d="M0 0 C0.33 0.66 0.66 1.32 1 2 C0.67 2.99 0.34 3.98 0 5 C-3.5625 6.1875 -3.5625 6.1875 -7 7 C-4.66666667 4.66666667 -2.33333333 2.33333333 0 0 Z " fill="#6EB9E8" transform="translate(352,372)"/>
<path d="M0 0 C0.33 1.32 0.66 2.64 1 4 C0.01 4.66 -0.98 5.32 -2 6 C-2.99 5.67 -3.98 5.34 -5 5 C-3.35 3.35 -1.7 1.7 0 0 Z " fill="#5FB0DE" transform="translate(358,367)"/>
<path d="M0 0 C0.66 0.99 1.32 1.98 2 3 C0.515 5.475 0.515 5.475 -1 8 C-1.99 7.67 -2.98 7.34 -4 7 C-2.68 4.69 -1.36 2.38 0 0 Z " fill="#CFF2FC" transform="translate(421,357)"/>
<path d="M0 0 C0.33 0.99 0.66 1.98 1 3 C-1.31 4.98 -3.62 6.96 -6 9 C-4 5 -4 5 -2 2 C-1.34 2 -0.68 2 0 2 C0 1.34 0 0.68 0 0 Z " fill="#46B1F6" transform="translate(379,347)"/>
<path d="M0 0 C0.66 0 1.32 0 2 0 C1.50168276 3.68754757 0.89932357 5.60490662 -2 8 C-2 6.35 -2 4.7 -2 3 C-1.34 3 -0.68 3 0 3 C0 2.01 0 1.02 0 0 Z " fill="#D0F6FE" transform="translate(391,321)"/>
<path d="M0 0 C0.66 0 1.32 0 2 0 C2 0.66 2 1.32 2 2 C2.66 2 3.32 2 4 2 C4.33 3.98 4.66 5.96 5 8 C2.5 5.6875 2.5 5.6875 0 3 C0 2.01 0 1.02 0 0 Z " fill="#54ABD5" transform="translate(196,296)"/>
<path d="M0 0 C4 2 4 2 6 4 C5.67 5.32 5.34 6.64 5 8 C2.525 4.04 2.525 4.04 0 0 Z " fill="#4CA8D7" transform="translate(144,224)"/>
<path d="M0 0 C4.875 2.75 4.875 2.75 6 5 C3.03 4.505 3.03 4.505 0 4 C-0.33 3.01 -0.66 2.02 -1 1 C-0.67 0.67 -0.34 0.34 0 0 Z " fill="#DADADA" transform="translate(397,63)"/>
</svg>
